<?xml version="1.0" encoding="utf-8"?>
<!-- Generator: Adobe Illustrator 16.0.0, SVG Export Plug-In . SVG Version: 6.00 Build 0)  -->
<!DOCTYPE svg PUBLIC "-//W3C//DTD SVG 1.0//EN" "http://www.w3.org/TR/2001/REC-SVG-20010904/DTD/svg10.dtd">
<svg version="1.0" id="Layer_1" xmlns="http://www.w3.org/2000/svg" xmlns:xlink="http://www.w3.org/1999/xlink" x="0px" y="0px"
	 width="800px" height="800px" viewBox="0 0 800 800" enable-background="new 0 0 800 800" xml:space="preserve">
<g>
	<path fill="#05BFE0" d="M100.284,459.128c-0.001-14.809,12.005-26.816,26.814-26.819c0.001,0,0.003,0,0.004,0v-26.813H19.833
		v26.813c14.811,0,26.816,12.008,26.816,26.819c0,14.807-12.006,26.817-26.816,26.817v26.813h107.269v-26.813
		c-14.811,0-26.817-12.005-26.818-26.811c0-0.003,0-0.003,0-0.003V459.128z"/>
	<path fill="#FF610F" d="M189.823,342.755c-0.01-29.615-24.018-53.617-53.632-53.619v107.267
		c29.616-0.001,53.625-24.006,53.632-53.623c0.007,29.617,24.018,53.623,53.634,53.623V289.135
		c-29.616,0-53.627,24.005-53.634,53.622V342.755z"/>
	<path d="M93.58,289.292c-1.116-0.104-2.233-0.156-3.353-0.157H19.833v107.269h20.113v-33.522h50.283c1.13,0,2.247-0.059,3.35-0.156
		c20.277-1.85,35.215-19.786,33.369-40.063c-1.617-17.718-15.653-31.754-33.369-33.369V289.292z M90.229,342.768H39.946v-33.524
		h50.283c9.258,0,16.762,7.507,16.762,16.764C106.991,335.264,99.488,342.768,90.229,342.768z"/>
	<path fill="#4F17A8" d="M136.19,512.756v-30.354l30.354,30.354H136.19z M197.375,512.756l-61.184-61.185v-30.829l92.016,92.014
		H197.375z M243.456,405.495v30.02l-30.025-30.02H243.456z M243.456,497.176l-91.687-91.681h30.832l60.855,60.849V497.176z"/>
	<path d="M252.593,506.637h-2.111v-1.006h5.327v1.006h-2.09v6.119h-1.125V506.637z M256.548,505.631h1.558l2.53,5.751l2.498-5.751
		h1.574v7.125h-1.123v-5.569l-2.43,5.569H260.1l-2.413-5.569v5.569h-1.123L256.548,505.631z M299.364,289.121h25.511
		c3.514-0.006,6.989,0.714,10.211,2.119c3.158,1.332,5.908,3.473,7.976,6.206c2.096,2.854,3.181,6.325,3.084,9.864
		c0.041,3.301-0.912,6.536-2.735,9.286c-1.903,2.818-4.542,5.057-7.63,6.475c-3.462,1.611-7.243,2.416-11.06,2.352h-12.565v18.573
		h-12.792V289.121z M322.716,315.633c1.856,0.029,3.693-0.338,5.394-1.081c1.49-0.636,2.781-1.66,3.741-2.964
		c0.893-1.247,1.363-2.746,1.344-4.279c0.028-1.551-0.43-3.075-1.308-4.354c-0.938-1.31-2.216-2.336-3.699-2.968
		c-1.729-0.746-3.593-1.114-5.475-1.078h-10.561v16.724H322.716z M350.947,304.534h9.247l1.773,6.321
		c1.866-4.675,6.452-7.69,11.483-7.556c2.212-0.039,4.389,0.55,6.279,1.699c1.875,1.185,3.416,2.828,4.473,4.777
		c1.197,2.188,1.918,4.605,2.117,7.091l-9.785,2.696c-0.042-1.952-0.781-3.825-2.083-5.28c-1.154-1.352-2.845-2.127-4.623-2.119
		c-1.359-0.009-2.679,0.454-3.737,1.311c-1.174,0.968-2.066,2.232-2.583,3.661c-0.638,1.687-0.952,3.479-0.924,5.28v21.574h-11.637
		V304.534z M399.945,342.607c-3.227-1.667-5.915-4.22-7.746-7.361c-3.697-6.854-3.697-15.11,0-21.965
		c1.831-3.139,4.519-5.692,7.746-7.359c7.204-3.494,15.614-3.494,22.813,0c3.23,1.667,5.916,4.22,7.746,7.359
		c3.699,6.855,3.699,15.11,0,21.965c-1.83,3.141-4.516,5.694-7.746,7.361C415.559,346.102,407.148,346.102,399.945,342.607z
		 M416.709,333.935c1.578-0.935,2.857-2.297,3.699-3.929c1.744-3.628,1.744-7.855,0-11.484c-0.842-1.632-2.121-2.993-3.699-3.93
		c-3.305-1.901-7.371-1.901-10.674,0c-1.563,0.946-2.83,2.307-3.66,3.931c-1.748,3.629-1.748,7.856,0,11.484
		c0.83,1.625,2.098,2.986,3.66,3.93c3.303,1.901,7.369,1.901,10.674,0V333.935z"/>
	<path d="M426.881,361.296c-2.189-0.962-4.076-2.492-5.475-4.432l5.166-6.78c0.627,1.239,1.59,2.279,2.775,3.003
		c1.107,0.698,2.389,1.071,3.701,1.079c2.178,0.053,4.158-1.231,5.008-3.235c0.477-1.093,0.711-2.276,0.695-3.47v-42.928h11.557
		v44.701c0.045,2.515-0.639,4.992-1.967,7.128c-1.334,2.102-3.227,3.783-5.469,4.855c-2.518,1.196-5.271,1.789-8.055,1.734
		C432.08,362.993,429.375,362.428,426.881,361.296L426.881,361.296z M439.637,297.329c-1.32-1.279-2.035-3.058-1.967-4.896
		c-0.057-1.812,0.658-3.562,1.967-4.814c2.85-2.52,7.129-2.52,9.98,0c1.285,1.265,1.986,3.011,1.924,4.814
		c0.072,1.831-0.629,3.605-1.924,4.896C446.766,299.846,442.486,299.846,439.637,297.329z M487.883,305.883
		c3.029,1.694,5.492,4.24,7.088,7.32c1.723,3.374,2.582,7.122,2.506,10.906c0,0.515-0.014,1.118-0.037,1.812
		c-0.025,0.696-0.064,1.22-0.115,1.58h-29.518c0.225,1.782,0.947,3.463,2.082,4.856c1.16,1.412,2.658,2.511,4.354,3.198
		c1.846,0.758,3.82,1.139,5.818,1.117c2.33,0.019,4.633-0.481,6.74-1.464c1.848-0.781,3.436-2.063,4.592-3.701l6.932,4.933
		c-1.729,2.877-4.354,5.112-7.471,6.358c-3.736,1.66-7.785,2.487-11.867,2.43c-4.123,0.07-8.199-0.871-11.867-2.737
		c-3.387-1.722-6.24-4.332-8.252-7.55c-2.027-3.3-3.072-7.111-3.008-10.983c-0.074-3.766,0.873-7.482,2.74-10.754
		c1.793-3.079,4.412-5.6,7.553-7.281c3.379-1.787,7.158-2.689,10.98-2.62C480.879,303.215,484.588,304.104,487.883,305.883
		L487.883,305.883z M472.66,312.896c-1.307,0.712-2.396,1.765-3.16,3.043c-0.854,1.421-1.426,2.991-1.693,4.626h17.881
		c-0.174-1.583-0.658-3.118-1.432-4.511c-1.461-2.639-4.26-4.258-7.283-4.198C475.473,311.835,473.99,312.193,472.66,312.896z
		 M512.453,342.567c-3.25-1.708-5.947-4.299-7.789-7.475c-1.893-3.291-2.867-7.033-2.811-10.828
		c-0.064-3.792,0.85-7.535,2.654-10.868c1.707-3.113,4.238-5.687,7.326-7.438c3.236-1.805,6.891-2.723,10.598-2.66
		c2.99-0.016,5.953,0.574,8.709,1.738c2.611,1.079,4.953,2.723,6.855,4.815c1.82,1.997,3.076,4.446,3.623,7.092l-10.635,2.697
		c-0.414-1.933-1.492-3.665-3.041-4.895c-1.486-1.228-3.354-1.896-5.279-1.887c-1.674-0.021-3.322,0.477-4.699,1.425
		c-1.447,1.02-2.58,2.421-3.277,4.046c-0.822,1.869-1.23,3.892-1.197,5.935c-0.033,2.057,0.43,4.092,1.35,5.935
		c0.822,1.663,2.088,3.063,3.66,4.046c1.58,0.96,3.395,1.455,5.238,1.426c1.611,0.008,3.199-0.374,4.627-1.119
		c1.414-0.723,2.639-1.766,3.582-3.043c0.955-1.293,1.576-2.804,1.811-4.393l10.791,1.539c-0.385,3.128-1.623,6.088-3.58,8.557
		c-2.004,2.534-4.576,4.554-7.518,5.894c-6.723,3.004-14.441,2.808-20.998-0.537V342.567z M559.795,343.454
		c-2.203-1.101-4.021-2.848-5.203-5.008c-1.234-2.378-1.844-5.028-1.771-7.706V313.32h-7.557v-8.786h7.557v-10.866l11.637-2.545
		l-0.076,13.411h16.029v8.786h-16.029l0.076,15.646c-0.094,1.837,0.512,3.641,1.693,5.048c1.111,1.251,2.721,1.943,4.396,1.889
		c1.682,0.035,3.332-0.479,4.697-1.465c1.443-1.104,2.604-2.529,3.391-4.163l4.088,6.859c-1.408,2.484-3.445,4.557-5.898,6.01
		c-2.654,1.454-5.648,2.172-8.672,2.083C565.266,345.314,562.396,344.707,559.795,343.454z M299.364,374.024h9.25l19.884,47.323
		l19.883-47.323h9.248v54.336h-6.397v-45.083l-19.342,45.086h-6.783l-19.344-45.012v45.012h-6.398V374.024z M372.541,428.438
		c-2.146-0.867-4.011-2.308-5.393-4.161c-1.3-1.767-1.992-3.9-1.968-6.09c-0.023-2.083,0.611-4.116,1.813-5.818
		c1.487-1.945,3.452-3.471,5.704-4.43c3.191-1.389,6.589-2.25,10.056-2.542l9.558-1.157c0.868-0.058,1.692-0.398,2.35-0.965
		c0.581-0.518,0.907-1.264,0.89-2.047c0.018-1.545-0.549-3.044-1.58-4.198c-1.139-1.263-2.567-2.228-4.164-2.813
		c-1.809-0.682-3.729-1.023-5.666-1c-2.192-0.038-4.367,0.423-6.358,1.348c-1.739,0.792-3.271,1.98-4.47,3.467
		c-1.033,1.234-1.664,2.752-1.81,4.354l-5.318-2.235c0.316-2.238,1.296-4.331,2.813-6.008c1.768-2.006,3.985-3.567,6.472-4.547
		c2.826-1.155,5.854-1.734,8.904-1.697c3.023-0.055,6.021,0.549,8.783,1.773c2.436,1.072,4.522,2.809,6.014,5.011
		c1.455,2.217,2.208,4.821,2.159,7.475v19.731c-0.043,0.688,0.164,1.37,0.578,1.924c0.361,0.451,0.922,0.71,1.5,0.695
		c0.592-0.031,1.16-0.244,1.619-0.618c0.613-0.463,1.137-1.039,1.543-1.693l3.162,3.696c-0.861,1.267-2.049,2.28-3.434,2.929
		c-1.377,0.7-2.893,1.069-4.43,1.081c-1.739,0.061-3.426-0.597-4.663-1.814c-1.232-1.261-1.887-2.976-1.814-4.738v-1.461
		c-0.916,1.635-2.13,3.084-3.583,4.275c-1.519,1.239-3.257,2.179-5.125,2.773c-2.042,0.657-4.174,0.979-6.318,0.965
		C377.683,429.949,375.022,429.449,372.541,428.438z M388.65,422.886c2.042-1.048,3.76-2.631,4.969-4.585
		c1.199-1.985,1.814-4.272,1.771-6.589v-2.773l-12.02,1.461c-3.335,0.219-6.576,1.193-9.481,2.854
		c-1.72,1.02-2.796,2.855-2.853,4.859c0.017,1.976,1.129,3.787,2.891,4.697c2.294,1.272,4.896,1.888,7.518,1.769
		c2.504,0.043,4.979-0.539,7.204-1.689L388.65,422.886z M414.313,389.438h5.318l0.537,5.704c1.342-2.266,3.291-4.107,5.629-5.316
		c2.369-1.274,5.018-1.936,7.707-1.927c2.965-0.059,5.891,0.716,8.439,2.236c2.422,1.471,4.383,3.594,5.662,6.125
		c1.369,2.736,2.059,5.763,2.006,8.823v23.277h-5.934v-23.273c0.033-2.104-0.418-4.187-1.309-6.088
		c-0.826-1.743-2.139-3.205-3.781-4.204c-1.748-1.029-3.748-1.55-5.779-1.501c-2.201-0.015-4.369,0.556-6.281,1.657
		c-1.908,1.087-3.504,2.654-4.625,4.548c-1.166,1.969-1.766,4.222-1.729,6.512v22.351h-5.865L414.313,389.438z M463.135,428.438
		c-2.146-0.867-4.012-2.308-5.396-4.161c-1.295-1.767-1.986-3.903-1.961-6.09c-0.025-2.083,0.609-4.116,1.809-5.818
		c1.488-1.945,3.455-3.471,5.705-4.43c3.191-1.392,6.588-2.25,10.057-2.542l9.557-1.157c0.865-0.058,1.693-0.398,2.348-0.965
		c0.58-0.518,0.91-1.264,0.893-2.047c0.014-1.545-0.553-3.044-1.584-4.198c-1.139-1.263-2.566-2.228-4.162-2.813
		c-1.813-0.682-3.73-1.021-5.662-1c-2.195-0.038-4.369,0.423-6.361,1.348c-1.738,0.792-3.271,1.98-4.473,3.467
		c-1.025,1.234-1.662,2.752-1.811,4.354l-5.316-2.235c0.32-2.238,1.301-4.331,2.816-6.008c1.766-2.006,3.986-3.567,6.471-4.547
		c2.824-1.155,5.85-1.734,8.9-1.697c3.025-0.056,6.023,0.549,8.791,1.773c2.43,1.072,4.516,2.809,6.008,5.011
		c1.455,2.217,2.209,4.821,2.16,7.475v19.731c-0.039,0.688,0.162,1.37,0.576,1.924c0.365,0.451,0.922,0.71,1.504,0.695
		c0.59-0.031,1.16-0.247,1.617-0.618c0.617-0.463,1.139-1.039,1.543-1.693l3.16,3.696c-0.861,1.267-2.047,2.28-3.434,2.929
		c-1.371,0.7-2.889,1.069-4.43,1.081c-1.736,0.063-3.422-0.594-4.662-1.814c-1.232-1.261-1.885-2.976-1.811-4.738v-1.461
		c-0.918,1.632-2.129,3.084-3.582,4.275c-1.518,1.239-3.258,2.179-5.127,2.773c-2.039,0.657-4.178,0.979-6.316,0.965
		C468.277,429.949,465.617,429.449,463.135,428.438z M479.242,422.886c2.043-1.048,3.76-2.631,4.971-4.585
		c1.201-1.985,1.813-4.272,1.773-6.589v-2.773l-12.023,1.461c-3.334,0.219-6.58,1.193-9.482,2.854
		c-1.717,1.02-2.793,2.855-2.846,4.859c0.012,1.976,1.129,3.787,2.887,4.697c2.291,1.272,4.895,1.888,7.518,1.769
		c2.502,0.043,4.98-0.539,7.203-1.689V422.886z"/>
	<path d="M510.396,446.088c-2.785-0.943-5.361-2.411-7.594-4.316c-2.061-1.754-3.703-3.938-4.816-6.399l4.934-3.392
		c0.633,2.039,1.775,3.878,3.313,5.357c1.664,1.614,3.645,2.859,5.814,3.66c2.381,0.892,4.902,1.337,7.438,1.312
		c2.902,0.055,5.768-0.636,8.324-2.003c2.352-1.27,4.287-3.182,5.594-5.511c1.334-2.442,2.012-5.19,1.961-7.977v-5.24
		c-1.6,2.427-3.768,4.427-6.32,5.818c-2.607,1.382-5.523,2.086-8.477,2.04c-3.506,0.055-6.963-0.868-9.98-2.658
		c-2.938-1.753-5.34-4.29-6.936-7.319c-1.699-3.245-2.561-6.859-2.506-10.521c-0.055-3.721,0.807-7.404,2.506-10.715
		c3.23-6.348,9.797-10.298,16.916-10.173c5.988-0.142,11.617,2.835,14.875,7.861l0.615-6.475h5.24v37.385
		c0.066,3.769-0.895,7.48-2.773,10.747c-1.828,3.14-4.498,5.702-7.703,7.401c-3.447,1.809-7.289,2.725-11.176,2.661
		C516.494,447.645,513.365,447.123,510.396,446.088L510.396,446.088z M528.623,422.154c2.18-1.3,3.947-3.181,5.123-5.432
		c1.254-2.401,1.891-5.075,1.848-7.784c0.047-2.798-0.588-5.56-1.848-8.057c-1.154-2.303-2.926-4.238-5.123-5.585
		c-4.516-2.673-10.131-2.673-14.645,0c-2.199,1.347-3.975,3.282-5.125,5.585c-1.26,2.497-1.896,5.259-1.848,8.057
		c-0.043,2.712,0.605,5.392,1.885,7.784c1.189,2.238,2.961,4.114,5.123,5.432C518.531,424.775,524.107,424.775,528.623,422.154z
		 M577.869,390.519c2.873,1.772,5.188,4.323,6.668,7.358c1.625,3.322,2.467,6.975,2.461,10.675v1.117
		c0,0.401-0.023,0.801-0.074,1.193H554.17c0.209,2.549,1.057,5.002,2.465,7.137c1.371,2.064,3.256,3.736,5.471,4.853
		c2.342,1.176,4.934,1.77,7.555,1.732c2.846,0.037,5.65-0.682,8.129-2.079c2.256-1.199,4.098-3.051,5.283-5.319l5.084,2.08
		c-1.447,3.258-3.926,5.955-7.049,7.673c-7.008,3.869-15.496,3.954-22.584,0.231c-3.225-1.788-5.883-4.446-7.67-7.673
		c-1.869-3.367-2.824-7.167-2.773-11.019c-0.055-3.682,0.818-7.311,2.541-10.562c1.633-3.065,4.09-5.616,7.096-7.358
		c3.111-1.796,6.652-2.716,10.244-2.66C571.443,387.825,574.875,388.734,577.869,390.519L577.869,390.519z M561.375,394.834
		c-1.93,1.032-3.564,2.545-4.74,4.393c-1.254,1.96-2.07,4.171-2.391,6.475h26.514c-0.252-2.298-0.986-4.521-2.156-6.513
		c-1.076-1.825-2.623-3.327-4.473-4.354c-1.914-1.044-4.064-1.574-6.244-1.541C565.623,393.257,563.383,393.787,561.375,394.834z
		 M594.352,389.438h5.088l0.617,4.856c1.164-1.987,2.838-3.625,4.854-4.74c2.059-1.116,4.367-1.689,6.703-1.655
		c2.963-0.061,5.883,0.701,8.443,2.195c2.363,1.382,4.238,3.473,5.355,5.975c1.223-2.449,3.104-4.504,5.432-5.934
		c7.162-4.421,16.551-2.198,20.969,4.961c0.23,0.379,0.451,0.767,0.652,1.164c1.365,2.739,2.055,5.763,2.002,8.827v23.273h-5.938
		v-23.353c0.029-2.077-0.416-4.138-1.309-6.012c-0.801-1.717-2.07-3.173-3.66-4.201c-1.604-1.013-3.461-1.534-5.357-1.501
		c-1.982-0.032-3.943,0.474-5.666,1.463c-1.682,0.987-3.033,2.449-3.891,4.2c-0.938,1.876-1.414,3.953-1.387,6.051v23.353h-5.854
		v-23.353c0.039-2.109-0.393-4.211-1.271-6.128c-0.785-1.698-2.045-3.129-3.623-4.123c-1.637-0.994-3.523-1.504-5.436-1.465
		c-2.004-0.042-3.973,0.466-5.703,1.465c-1.646,0.975-2.971,2.408-3.818,4.123c-0.928,1.904-1.391,4.009-1.344,6.131v23.35h-5.863
		L594.352,389.438z M690.619,390.519c2.873,1.772,5.184,4.323,6.668,7.358c1.631,3.322,2.475,6.975,2.467,10.675v1.117
		c0,0.401-0.029,0.801-0.074,1.193h-32.76c0.213,2.549,1.063,5.002,2.469,7.137c1.371,2.064,3.254,3.736,5.469,4.853
		c2.344,1.176,4.932,1.77,7.553,1.732c2.848,0.037,5.65-0.682,8.133-2.079c2.256-1.199,4.098-3.051,5.279-5.319l5.084,2.08
		c-1.449,3.258-3.92,5.955-7.047,7.673c-7.014,3.869-15.498,3.954-22.582,0.231c-3.229-1.788-5.887-4.446-7.67-7.673
		c-1.873-3.367-2.828-7.167-2.777-11.019c-0.055-3.682,0.82-7.311,2.545-10.562c1.629-3.065,4.086-5.616,7.088-7.358
		c3.117-1.796,6.658-2.716,10.256-2.66C684.199,387.825,687.629,388.734,690.619,390.519L690.619,390.519z M674.127,394.834
		c-1.934,1.032-3.563,2.545-4.744,4.393c-1.252,1.96-2.068,4.171-2.385,6.475h26.51c-0.254-2.298-0.986-4.521-2.154-6.513
		c-1.078-1.825-2.623-3.327-4.473-4.354c-1.912-1.044-4.063-1.574-6.242-1.541C678.373,393.257,676.139,393.787,674.127,394.834
		L674.127,394.834z M707.104,389.438h5.314l0.541,5.704c1.344-2.266,3.293-4.105,5.627-5.316c2.369-1.274,5.018-1.936,7.709-1.927
		c2.965-0.061,5.889,0.716,8.441,2.236c2.42,1.472,4.379,3.594,5.662,6.125c1.365,2.736,2.055,5.763,2,8.823v23.277h-5.934v-23.273
		c0.035-2.104-0.408-4.187-1.307-6.088c-0.82-1.742-2.131-3.203-3.779-4.204c-1.746-1.029-3.75-1.55-5.777-1.501
		c-2.203-0.015-4.373,0.556-6.277,1.657c-1.916,1.087-3.508,2.654-4.629,4.548c-1.17,1.969-1.768,4.222-1.736,6.512v22.351h-5.855
		V389.438z M760.166,428.36c-1.83-0.984-3.34-2.464-4.354-4.281c-1.047-1.894-1.58-4.031-1.543-6.199v-23.586h-8.555v-4.856h8.555
		v-11.56l5.861-1.387v12.947h17.416v4.856h-17.42v22.969c-0.08,1.981,0.594,3.924,1.889,5.435c1.281,1.422,3.135,2.201,5.047,2.118
		c2.004,0,3.932-0.758,5.395-2.118c1.639-1.499,2.676-3.542,2.93-5.746l4.779,2.007c-0.439,3.163-2.115,6.016-4.664,7.938
		c-2.564,1.994-5.73,3.054-8.979,3.008C764.311,429.938,762.121,429.41,760.166,428.36z M299.364,458.392h6.398v54.335h-6.398
		V458.392z M315.265,473.806h5.315l0.539,5.703c1.34-2.266,3.291-4.11,5.63-5.319c2.368-1.272,5.016-1.936,7.705-1.927
		c2.967-0.055,5.89,0.716,8.438,2.238c2.423,1.473,4.386,3.592,5.665,6.122c1.37,2.741,2.057,5.77,2.005,8.829v23.274h-5.936
		v-23.274c0.034-2.104-0.414-4.186-1.31-6.088c-0.821-1.743-2.133-3.204-3.775-4.205c-1.75-1.026-3.751-1.548-5.78-1.498
		c-2.205-0.019-4.373,0.555-6.281,1.655c-1.911,1.088-3.505,2.655-4.625,4.547c-1.168,1.97-1.767,4.222-1.736,6.512v22.352h-5.854
		V473.806z M365.712,512.531c-2.524-1.047-4.766-2.67-6.552-4.744c-1.666-1.94-2.737-4.318-3.081-6.854l5.78-1.159
		c0.147,1.741,0.819,3.394,1.925,4.742c1.195,1.462,2.75,2.589,4.511,3.271c3.756,1.446,7.896,1.541,11.716,0.274
		c1.464-0.494,2.789-1.343,3.85-2.463c0.907-0.947,1.419-2.198,1.428-3.514c0.031-1.27-0.542-2.481-1.542-3.272
		c-1.136-0.902-2.449-1.561-3.855-1.926c-1.54-0.438-3.52-0.886-5.934-1.352c-2.786-0.472-5.538-1.113-8.246-1.927
		c-2.033-0.62-3.874-1.744-5.354-3.272c-1.541-1.721-2.33-3.979-2.197-6.284c-0.018-2.15,0.643-4.254,1.888-6.01
		c1.315-1.844,3.096-3.308,5.162-4.236c2.309-1.06,4.823-1.582,7.361-1.546c2.51-0.027,5,0.441,7.32,1.389
		c2.098,0.847,3.981,2.151,5.513,3.814c1.428,1.553,2.425,3.453,2.889,5.512l-5.625,1.54c-0.273-2.08-1.443-3.938-3.2-5.086
		c-2.055-1.387-4.497-2.091-6.976-2.003c-1.496-0.021-2.981,0.28-4.352,0.884c-1.224,0.526-2.295,1.346-3.121,2.394
		c-0.755,0.952-1.163,2.137-1.155,3.352c-0.044,1.254,0.553,2.44,1.58,3.157c0.814,0.648,1.742,1.147,2.733,1.467
		c0.771,0.2,3.185,0.664,7.245,1.389c2.708,0.499,5.376,1.209,7.977,2.116c2.057,0.719,3.918,1.905,5.435,3.467
		c1.472,1.604,2.247,3.729,2.157,5.9c0.021,2.349-0.737,4.641-2.157,6.511c-1.537,2.003-3.57,3.57-5.897,4.548
		c-2.666,1.136-5.54,1.702-8.439,1.654C371.48,514.299,368.488,513.712,365.712,512.531L365.712,512.531z M407.045,512.727
		c-1.83-0.982-3.34-2.467-4.354-4.278c-1.047-1.897-1.58-4.041-1.543-6.205v-23.584h-8.553v-4.854h8.553v-11.56l5.859-1.391v12.95
		h17.412v4.854h-17.412v22.966c-0.082,1.988,0.592,3.927,1.885,5.432c1.281,1.428,3.137,2.204,5.049,2.121
		c2.002,0,3.93-0.755,5.395-2.121c1.639-1.496,2.676-3.532,2.93-5.736l4.779,2c-0.438,3.16-2.115,6.02-4.664,7.938
		c-2.561,1.994-5.73,3.057-8.979,3.006C411.189,514.303,409,513.769,407.045,512.727z M431.805,465.29
		c-0.811-0.831-1.242-1.963-1.195-3.121c-0.035-1.139,0.393-2.239,1.195-3.047c0.834-0.81,1.963-1.242,3.123-1.193
		c1.168-0.042,2.311,0.387,3.16,1.193c0.818,0.795,1.27,1.899,1.23,3.047c0.045,1.165-0.4,2.299-1.23,3.121
		c-0.85,0.808-1.992,1.239-3.16,1.194C433.768,466.535,432.635,466.102,431.805,465.29z M431.924,473.806h5.855v38.921h-5.855
		V473.806z M457.168,512.727c-1.83-0.982-3.34-2.467-4.354-4.278c-1.047-1.9-1.576-4.041-1.541-6.205v-23.584h-8.559v-4.854h8.559
		v-11.56l5.857-1.391v12.95h17.416v4.854h-17.416v22.966c-0.08,1.988,0.596,3.927,1.889,5.432c1.281,1.428,3.133,2.204,5.049,2.121
		c2,0,3.926-0.755,5.391-2.121c1.639-1.496,2.676-3.532,2.93-5.736l4.779,2c-0.441,3.16-2.115,6.02-4.664,7.938
		c-2.563,1.994-5.73,3.057-8.979,3.006c-2.213,0.039-4.402-0.495-6.354-1.537H457.168z M489.119,512.068
		c-2.428-1.45-4.391-3.561-5.66-6.087c-1.379-2.761-2.064-5.814-2.008-8.898v-23.277h5.861v23.272
		c-0.045,2.12,0.418,4.222,1.35,6.127c0.855,1.727,2.176,3.182,3.814,4.202c1.738,1.053,3.744,1.585,5.779,1.54
		c2.18,0.006,4.316-0.563,6.201-1.656c1.912-1.091,3.508-2.657,4.627-4.549c1.166-1.97,1.768-4.223,1.732-6.512v-22.425h5.938
		v38.921h-5.318l-0.619-5.703c-1.305,2.277-3.244,4.125-5.59,5.316c-2.355,1.263-4.986,1.924-7.666,1.924
		C494.598,514.323,491.68,513.563,489.119,512.068z M535.832,512.727c-1.83-0.982-3.338-2.467-4.354-4.278
		c-1.045-1.897-1.578-4.041-1.541-6.205v-23.584h-8.555v-4.854h8.555v-11.56l5.857-1.391v12.95h17.416v4.854h-17.416v22.966
		c-0.082,1.988,0.598,3.927,1.885,5.432c1.281,1.428,3.137,2.204,5.051,2.121c2,0,3.93-0.755,5.395-2.121
		c1.635-1.496,2.68-3.532,2.932-5.736l4.775,2c-0.439,3.16-2.113,6.02-4.662,7.938c-2.566,1.994-5.732,3.057-8.979,3.006
		C539.975,514.303,537.787,513.769,535.832,512.727L535.832,512.727z M588.758,474.888c2.871,1.768,5.186,4.319,6.664,7.355
		c1.635,3.325,2.477,6.975,2.467,10.675v1.12c0,0.398-0.027,0.794-0.078,1.193h-32.754c0.213,2.542,1.059,4.995,2.467,7.127
		c1.373,2.066,3.254,3.739,5.471,4.856c2.348,1.172,4.936,1.769,7.557,1.732c2.844,0.036,5.648-0.682,8.133-2.08
		c2.252-1.198,4.09-3.054,5.277-5.316l5.084,2.08c-1.447,3.258-3.926,5.953-7.053,7.667c-7.006,3.875-15.494,3.96-22.582,0.234
		c-3.225-1.791-5.879-4.446-7.666-7.669c-1.873-3.368-2.828-7.171-2.777-11.022c-0.055-3.679,0.822-7.311,2.547-10.559
		c1.629-3.065,4.084-5.617,7.086-7.361c3.115-1.794,6.656-2.713,10.254-2.658C582.334,472.192,585.766,473.097,588.758,474.888
		L588.758,474.888z M572.264,479.198c-1.93,1.035-3.566,2.549-4.74,4.396c-1.256,1.961-2.07,4.168-2.387,6.473h26.508
		c-0.25-2.302-0.986-4.518-2.156-6.515c-1.076-1.825-2.619-3.325-4.471-4.354c-1.912-1.041-4.064-1.574-6.242-1.54
		C576.51,477.621,574.27,478.154,572.264,479.198z M606.18,513.55c-0.836-0.469-1.529-1.159-1.998-1.991
		c-0.967-1.789-0.965-3.948,0.006-5.735c0.479-0.838,1.172-1.531,2.008-2.007c1.783-0.974,3.943-0.977,5.73-0.009
		c0.83,0.476,1.52,1.172,1.986,2.01c0.967,1.79,0.967,3.949,0,5.741c-0.467,0.832-1.156,1.522-1.986,1.991
		c-0.875,0.484-1.863,0.731-2.861,0.72C608.059,514.284,607.061,514.037,606.18,513.55z M611.641,513.066
		c0.75-0.42,1.371-1.042,1.791-1.791c0.439-0.785,0.66-1.674,0.648-2.569c0.012-0.906-0.209-1.795-0.648-2.588
		c-0.42-0.761-1.041-1.385-1.791-1.817c-0.781-0.443-1.664-0.67-2.564-0.658c-0.908-0.012-1.809,0.21-2.604,0.649
		c-0.762,0.427-1.389,1.056-1.807,1.814c-0.439,0.797-0.666,1.693-0.652,2.6c-0.014,0.896,0.213,1.784,0.652,2.569
		c0.422,0.752,1.047,1.371,1.807,1.791c0.797,0.436,1.695,0.657,2.604,0.646C609.971,513.724,610.855,513.502,611.641,513.066z"/>
	<path d="M611.895,512.231l-1.732-3.048c0.197-0.042,0.383-0.109,0.566-0.2c0.342-0.167,0.629-0.426,0.828-0.749
		c0.199-0.322,0.303-0.697,0.299-1.075l0,0v-0.048c0.004-0.362-0.098-0.719-0.287-1.029c-0.191-0.307-0.463-0.554-0.791-0.716
		c-0.355-0.173-0.748-0.261-1.145-0.255h-2.979v7.12h1.057v-2.978h1.328l1.684,2.989L611.895,512.231z M607.715,508.351V506h1.541
		c0.398-0.019,0.791,0.094,1.119,0.322c0.271,0.194,0.434,0.521,0.422,0.858c0.018,0.342-0.139,0.661-0.41,0.861
		c-0.316,0.221-0.693,0.327-1.076,0.309H607.715z"/>
</g>
</svg>
